<?xml version="1.0" standalone="no"?><!DOCTYPE svg PUBLIC "-//W3C//DTD SVG 1.1//EN" "http://www.w3.org/Graphics/SVG/1.1/DTD/svg11.dtd"><svg class="icon" width="200px" height="200.00px" viewBox="0 0 1024 1024" version="1.1" xmlns="http://www.w3.org/2000/svg"><path fill="#333333" d="M800 256c35.346 0 64 28.654 64 64v64h32c35.346 0 64 28.654 64 64v128c0 35.346-28.654 64-64 64h-32v64c0 35.346-28.654 64-64 64H128c-35.346 0-64-28.654-64-64V320c0-35.346 28.654-64 64-64h672z m96 320V448h-96V320H128v384h672V576h96z"  /><path fill="#333333" d="M164 356m24 0l152 0q24 0 24 24l0 264q0 24-24 24l-152 0q-24 0-24-24l0-264q0-24 24-24Z"  /></svg>